<svg xmlns="http://www.w3.org/2000/svg" width="288.5" height="192.2" viewBox="0 0 288.5 192.2">
    <g fill="#25D4FF">
        <path d="M59.2 1.6c3.7-.5 7.1-.9 10.4-1.2 3.3-.3 7-.4 11-.4 3.5 0 6.9.1 10.2.4 3.3.3 7 .7 11 1.2l58.7 187.5c-7.1 1-14.1 1.6-20.9 1.6-6.6 0-13-.5-19.3-1.6l-10.4-37.6H47.7L37 189.1c-6.3 1-12.3 1.6-18 1.6-6.4 0-12.8-.5-19-1.6L59.2 1.6zM100.9 120L79.3 41.2 56.6 120h44.3zM200.6 133c.7 10.4 4.3 18 11 22.7 6.6 4.7 15.3 7 26.1 7 5.9 0 12-.6 18.1-1.7 6.2-1.1 12-2.7 17.6-4.8 1.9 3.5 3.6 7.7 5 12.5 1.4 4.9 2.2 10.1 2.3 15.6-13.6 5.2-28.9 7.8-45.9 7.8-12.5 0-23.3-1.7-32.2-5.2-9-3.5-16.3-8.3-21.9-14.5-5.7-6.2-9.8-13.5-12.5-22-2.7-8.5-4-17.8-4-27.9 0-9.9 1.4-19.2 4.2-27.9 2.8-8.7 6.9-16.3 12.4-22.7 5.5-6.4 12.3-11.5 20.3-15.3 8.1-3.7 17.5-5.6 28.3-5.6 9.4 0 17.7 1.7 25 5 7.3 3.3 13.5 7.8 18.6 13.6 5.1 5.7 9 12.6 11.6 20.5 2.6 7.9 3.9 16.4 3.9 25.4 0 3.3-.1 6.6-.4 9.8-.3 3.2-.6 5.8-.9 7.7h-86.6zm52.9-25.8c-.4-8.3-2.7-15.1-6.9-20.2-4.3-5.1-10.2-7.7-17.9-7.7-8.7 0-15.3 2.4-19.8 7.3s-7.2 11.7-8.1 20.6h52.7z"/>
    </g>
</svg>
