<svg xmlns="http://www.w3.org/2000/svg" width="238.1" height="193.8" viewBox="0 0 238.1 193.8">
    <g fill="#25D4FF">
        <path d="M0 2.3C8 1.6 16.1 1 24.3.6 32.4.2 40.7 0 49 0c8.7 0 17.5.9 26.5 2.6 9 1.7 17 5 24.3 9.8 7.2 4.8 13.1 11.4 17.6 20 4.5 8.5 6.8 19.6 6.8 33.1 0 13.6-2.3 24.6-6.8 33-4.5 8.4-10.3 15.1-17.5 20-7.1 4.9-15.1 8.2-23.9 9.9-8.8 1.7-17.4 2.6-26 2.6-2.3 0-4.4 0-6.4-.1s-3.9-.2-5.6-.4v60.2c-3.3.5-6.5.9-9.6 1-3.1.2-6.2.3-9.1.3-2.8 0-5.8-.1-9.1-.3-3.3-.2-6.7-.5-10.2-1V2.3zm38.1 96.5c2.1.4 4 .5 5.9.5h6.7c4.3 0 8.6-.6 12.8-1.7 4.2-1.1 7.9-3 11.1-5.6 3.2-2.6 5.8-6 7.7-10.3C84.1 77.5 85 72.2 85 66c0-6.4-1-11.9-2.9-16.3s-4.5-8-7.7-10.7c-3.2-2.7-6.9-4.6-11.1-5.7-4.2-1.1-8.4-1.7-12.8-1.7-1.9 0-3.7 0-5.3.1-1.7.1-4 .3-7.2.7v66.4zM171.6 132c-9.7-2.8-17.3-6.9-22.8-12.4s-8.2-13.7-8.2-24.6c0-13.2 4.7-23.6 14.2-31 9.5-7.5 22.4-11.2 38.7-11.2 6.8 0 13.5.6 20.1 1.8 6.6 1.2 13.3 3 20.1 5.5-.4 4.5-1.2 9.2-2.6 14.1-1.4 4.9-3 9.1-5 12.8-4.2-1.7-8.8-3.3-13.8-4.6-5-1.3-10.3-2-15.9-2-5.9 0-10.5.9-13.8 2.7-3.3 1.8-5 4.7-5 8.7 0 3.8 1.2 6.5 3.5 8.1 2.3 1.6 5.7 3 10 4.4l14.9 4.4c4.9 1.4 9.3 3.1 13.2 5.1 3.9 2 7.3 4.5 10 7.4 2.8 3 5 6.6 6.5 11 1.6 4.3 2.3 9.6 2.3 15.9 0 6.4-1.3 12.4-4 18s-6.6 10.4-11.7 14.5-11.3 7.3-18.6 9.6c-7.3 2.3-15.6 3.5-24.8 3.5-4.2 0-8-.1-11.5-.4-3.5-.3-6.8-.7-10-1.3-3.2-.6-6.4-1.3-9.5-2.2-3.1-.9-6.5-2-10.2-3.4.3-4.7 1.2-9.4 2.5-14.2 1.3-4.8 3-9.4 5.1-14 5.7 2.3 11.2 4 16.3 5.1 5.1 1.1 10.5 1.7 16 1.7 2.4 0 5.1-.2 8-.7 2.9-.4 5.5-1.2 8-2.3 2.4-1.1 4.5-2.6 6.1-4.4 1.7-1.8 2.5-4.2 2.5-7.2 0-4.2-1.3-7.2-3.8-9-2.5-1.8-6-3.4-10.6-4.8l-16.2-4.6z"/>
    </g>
</svg>
