<svg xmlns="http://www.w3.org/2000/svg" width="218.6" height="195.6" viewBox="0 0 218.6 195.6">
    <g fill="#FF7919">
        <path d="M59.2 6.5c3.7-.5 7.1-.9 10.4-1.2 3.3-.3 7-.4 11-.4 3.5 0 6.9.1 10.2.4 3.3.3 7 .7 11 1.2L160.4 194c-7.1 1-14.1 1.6-20.9 1.6-6.6 0-13-.5-19.3-1.6l-10.4-37.6H47.7L37 194c-6.3 1-12.3 1.6-18 1.6-6.4 0-12.8-.5-19-1.6L59.2 6.5zm41.7 118.4L79.3 46.2 56.6 125h44.3zM182.3 87.4h-17.5c-.5-2.3-.9-4.6-1.2-7.2-.3-2.5-.4-4.9-.4-7.2 0-4.7.5-9.3 1.6-13.8h53.7V194c-6.3 1-12.3 1.6-18.3 1.6-5.7 0-11.7-.5-18-1.6V87.4zm-5.5-50.9c-1-5.9-1.6-11.7-1.6-17.5 0-5.6.5-11.4 1.6-17.5 3-.5 6.1-.9 9.5-1.2 3.4-.3 6.5-.4 9.3-.4 3 0 6.2.1 9.7.4 3.5.3 6.7.7 9.6 1.2.5 3 .9 5.9 1 8.7.2 2.9.3 5.8.3 8.7 0 2.8-.1 5.7-.3 8.6-.2 3-.5 5.9-1 8.9-3 .5-6.1.9-9.5 1-3.4.2-6.6.3-9.5.3-2.8 0-5.9-.1-9.4-.3-3.5 0-6.7-.4-9.7-.9z"/>
    </g>
</svg>
