<svg xmlns="http://www.w3.org/2000/svg" width="256" height="361" viewBox="-21 20 256 361">
    <path fill="#E44D26" d="M234.6 90.8l-23.2 260.4-104.5 29-104.2-29-23.3-260.4h255.2z"/>
    <path fill="#F16529" d="M107 358l84.4-23.4 19.9-222.5H107V358z"/>
    <path fill="#EBEBEB" d="M61.8 175.9H107V144H26.9l.8 8.6 7.8 88H107v-31.9H64.7l-2.9-32.8zM69 256.5H37l4.5 50.1 65.4 18.2h.1v-33.2h-.1L71.3 282 69 256.5z"/>
    <path d="M3.2 20h16.2v16h14.8V20h16.2v48.6H34.3V52.3H19.4v16.3H3.2V20zM71.8 36.1H57.5V20h44.8v16.1H88.1v32.5H71.8V36.1zM109.5 20h16.9l10.4 17.1L147.2 20h16.9v48.6H148V44.5l-11.2 17.3h-.3l-11.2-17.3v24.1h-15.9V20h.1zM172.2 20h16.2v32.5h22.8v16.1h-39.1V20h.1z"/>
    <path fill="#FFF" d="M106.9 240.6h39.3l-3.7 41.4-35.6 9.6v33.2l65.5-18.1.5-5.4 7.5-84.1.8-8.6H107v32h-.1zM106.9 175.9l77.1.1.6-7.2 1.5-16.2.8-8.6h-80v31.9z"/>
</svg>
