<?xml version="1.0" encoding="utf-8"?>
<!-- Generator: Adobe Illustrator 19.0.0, SVG Export Plug-In . SVG Version: 6.00 Build 0)  -->
<!DOCTYPE svg PUBLIC "-//W3C//DTD SVG 1.1//EN" "http://www.w3.org/Graphics/SVG/1.1/DTD/svg11.dtd">
<svg version="1.1" id="Layer_1" xmlns="http://www.w3.org/2000/svg" xmlns:xlink="http://www.w3.org/1999/xlink" x="0px" y="0px"
	 width="256px" height="256px" viewBox="-21 73 256 256" enable-background="new -21 73 256 256" xml:space="preserve">
<g>
	<path fill="#F7DF1E" d="M-21,73h256v256H-21V73z"/>
	<path d="M46.3,286.9l19.6-11.9c3.8,6.7,7.2,12.4,15.5,12.4c7.9,0,12.9-3.1,12.9-15.1v-81.8h24.1v82.1c0,24.9-14.6,36.3-35.9,36.3
		C63.2,308.9,52,299,46.3,286.9"/>
	<path d="M131.4,284.4L151,273c5.2,8.4,11.9,14.6,23.7,14.6c10,0,16.3-5,16.3-11.9c0-8.2-6.5-11.2-17.5-16l-6-2.6
		c-17.4-7.4-28.9-16.7-28.9-36.3c0-18,13.7-31.8,35.2-31.8c15.3,0,26.3,5.3,34.2,19.2l-18.7,12c-4.1-7.4-8.6-10.3-15.5-10.3
		c-7,0-11.5,4.5-11.5,10.3c0,7.2,4.5,10.1,14.8,14.6l6,2.6c20.4,8.8,32,17.7,32,37.8c0,21.7-17,33.5-39.9,33.5
		C152.9,308.9,138.4,298.3,131.4,284.4"/>
</g>
</svg>
