<svg xmlns="http://www.w3.org/2000/svg" width="256" height="361" viewBox="-21 20 256 361">
    <path fill="#264DE4" d="M106.8 380.1L2.7 351.2-20.6 90.8h255.1l-23.2 260.4-104.5 28.9z"/>
    <path fill="#2965F1" d="M191.4 334.5L211.3 112H107v246l84.4-23.5z"/>
    <path fill="#EBEBEB" d="M32.7 208.6l2.9 31.9H107v-31.9H32.7zM26.9 144l2.9 31.9H107V144H26.9zM107 291.6h-.1L71.3 282 69 256.5H37l4.5 50.1 65.4 18.2h.1v-33.2z"/>
    <path d="M39.5 20h38.7v16.2H55.7v16.2h22.5v16.2H39.5V20zM85.9 20h38.7v14.1h-22.5v2.8h22.5v32.4H85.9V54.5h22.5v-2.8H85.9V20zM132.3 20H171v14.1h-22.5v2.8H171v32.4h-38.7V54.5h22.5v-2.8h-22.5V20z"/>
    <path fill="#FFF" d="M181.1 208.6l5.8-64.6h-80v31.9h45l-2.9 32.7h-42.1v31.9h39.3l-3.7 41.4-35.6 9.6v33.2l65.5-18.1.5-5.4 7.5-84.1.7-8.5z"/>
</svg>
