<svg xmlns="http://www.w3.org/2000/svg" width="411" height="448" viewBox="0 0 411 448">
    <path fill="#00ABCD" d="M0 0v47.7L56.3 0z"/>
    <path fill="#15C0E1" d="M0 81.9V47.7L56.3 0z"/>
    <path fill="#14AECC" d="M0 81.9l56.3-29V0z"/>
    <path fill="#00A8CA" d="M0 81.9l56.3-29 8.8 37.3z"/>
    <path fill="#0FA3BF" d="M0 81.9v35.7l65.1-27.4z"/>
    <path fill="#00AED1" d="M139.5 202.8L0 117.6l65.1-27.4z"/>
    <path fill="#00A4C5" d="M139.5 202.8L0 117.6v138.8z"/>
    <path fill="#00B7DB" d="M139.5 202.8l-57 51L0 256.4z"/>
    <path fill="#009EBD" d="M39.9 277.3l42.6-23.5L0 256.4z"/>
    <path fill="#00AED1" d="M39.9 277.3l42.6-23.5 3.6 56.5z"/>
    <path fill="#00BBE1" d="M139.5 202.8l-57 51 3.6 56.5z"/>
    <path fill="#00A4C5" d="M139.5 202.8v107.5H86.1z"/>
    <path fill="#15C2E9" d="M32.6 373.8l106.9-63.5H86.1z"/>
    <path fill="#00AED1" d="M32.6 373.8l30.4-80 23.1 16.5z"/>
    <path fill="#00BEE3" d="M32.6 373.8l30.4-80-23.1-16.5-20.9-11z"/>
    <path fill="#00A0BF" d="M32.6 373.8L0 256.4l19 9.9z"/>
    <path fill="#0095B2" d="M32.6 373.8L0 256.4v169.2z"/>
    <path fill="#46C7EF" d="M32.6 373.8L0 448v-22.4z"/>
    <path fill="#00ABCD" d="M32.6 373.8L0 448h73.3z"/>
    <path fill="#009EBD" d="M32.6 373.8l87.5-52L73.3 448z"/>
    <path fill="#00B7DB" d="M115.5 387.4l4.6-65.6L73.3 448z"/>
    <path fill="#00A6C7" d="M115.5 387.4l14.9 60.6H73.3z"/>
    <path fill="#00B9DE" d="M115.5 387.4l14.9 60.6 163.4-97.1z"/>
    <path fill="#00A2C2" d="M115.5 387.4l77.2-36.5h101.1z"/>
    <path fill="#00ABCD" d="M115.5 387.4l77.2-36.5-74.9 4.7z"/>
    <path fill="#0099B8" d="M120.1 321.8l72.6 29.1-74.9 4.7z"/>
    <path fill="#00A4C5" d="M120.1 321.8l72.6 29.1-53.2-42z"/>
    <path fill="#00ABCD" d="M221.7 308.9l-29 42-53.2-42zM221.7 308.9l-29 42 38.8-21z"/>
    <path fill="#00ABCD" d="M221.7 308.9l14.5-1.9-4.7 22.9z"/>
    <path fill="#0097B5" d="M251 300.6l-14.8 6.4-4.7 22.9z"/>
    <path fill="#00ABCD" d="M251 300.6l-5.8 50.3-13.7-21z"/>
    <path fill="#00B0D3" d="M192.7 350.9h52.5l-13.7-21z"/>
    <path fill="#00C0E6" d="M251 300.6l-5.8 50.3 35.7-49.1z"/>
    <path fill="#00ABCD" d="M251 300.6l13.8-13.9 16.1 15.1zM315.7 296l-50.9-9.3 16.1 15.1z"/>
    <path fill="#00ABCD" d="M315.7 296l-21.9 54.9-12.9-49.1z"/>
    <path fill="#00B2D6" d="M245.2 350.9h48.6l-12.9-49.1z"/>
    <path fill="#00A8CA" d="M315.7 296l-21.9 54.9 85 11.5z"/>
    <path fill="#00A0BF" d="M318.6 403.3l-24.8-52.4 85 11.5z"/>
    <path fill="#00ABCD" d="M318.6 403.3l-24.8-52.4-36.4 22.9z"/>
    <path fill="#00C0E6" d="M318.6 403.3l-115.9 22.3 54.7-51.8z"/>
    <path fill="#46C7EF" d="M318.6 403.3l-115.9 22.3 45.4 20.8z"/>
    <path fill="#00B7DB" d="M318.6 403.3L303 430.6l-54.9 15.8z"/>
    <path fill="#00ABCD" d="M318.6 403.3L303 430.6l75.8-68.2z"/>
    <path fill="#0099B8" d="M355.4 394.9L303 430.6l75.8-68.2z"/>
    <path fill="#00ABCD" d="M130.4 448l72.3-22.4 45.4 20.8z"/>
    <path fill="#00B2D6" d="M130.4 448l72.3-22.4 91.1-74.7z"/>
    <path fill="#07C1E8" d="M315.7 296l-50.9-9.3 6.8-13.8z"/>
    <path fill="#00AED1" d="M315.7 296l18.8-31.4-62.9 8.3z"/>
    <path fill="#00BBE1" d="M275.2 247.7l59.3 16.9-62.9 8.3z"/>
    <path fill="#00ABCC" d="M86.1 0L56.3 52.9V0z"/>
    <path fill="#009EBD" d="M86.1 0L56.3 52.9l118.5 45.4z"/>
    <path fill="#00ABCC" d="M86.1 0h22.7l66 98.3z"/>
    <path fill="#00A2C2" d="M259.9 34.4L108.8 0l66 98.3z"/>
    <path fill="#0097B5" d="M259.9 34.4L108.8 0h80.9z"/>
    <path fill="#00B0D3" d="M259.9 34.4V0h-70.2z"/>
    <path fill="#00B7DB" d="M259.9 34.4V0h11.7z"/>
    <path fill="#019BBA" d="M259.9 34.4l23.7-32.6-12-1.8z"/>
    <path fill="#0095B2" d="M259.9 34.4l23.7-32.6 18.8 3.9z"/>
    <path fill="#00B0D3" d="M259.9 34.4l-4.6 36.9 47.1-65.6z"/>
    <path fill="#00ACCE" d="M259.9 34.4l-4.6 36.9-80.5 27z"/>
    <path fill="#00BBE1" d="M207.3 160l48-88.7-80.5 27z"/>
    <path fill="#18AFCC" d="M207.3 160l-62.9-2.9 30.4-58.8z"/>
    <path fill="#00ABCD" d="M207.3 160l-62.9-2.9 30.4 42.7z"/>
    <path fill="#00B9DE" d="M207.3 160l21.6 42.8-54.1-3z"/>
    <path fill="#00ABCD" d="M207.3 160l21.6 42.8 31-13z"/>
    <path fill="#38C4E3" d="M259.9 218.8l-31-16 31-13z"/>
    <path fill="#4DC6E1" d="M117.8 169.9l26.6-12.8 30.4 42.7z"/>
    <path fill="#41C6EF" d="M117.8 169.9l21.7 32.9 35.3-3z"/>
    <path fill="#08B7D8" d="M117.8 169.9l26.6-12.8-79.3-66.9z"/>
    <path fill="#00B8DB" d="M56.3 52.9l88.1 104.2 30.4-58.8z"/>
    <path fill="#00ABCD" d="M56.3 52.9l88.1 104.2-79.3-66.9z"/>
    <path fill="#00B0D3" d="M207.3 160l48-88.7-7.3 51z"/>
    <path fill="#00A0BF" d="M302.4 5.7l-47.1 65.6-7.3 51z"/>
    <path fill="#009EBD" d="M302.4 5.7l18.2 8.3L248 122.3z"/>
    <path fill="#00A8CA" d="M324.3 108.4L320.6 14 248 122.3z"/>
    <path fill="#15C2E9" d="M324.3 108.4l-117 51.6 40.7-37.7z"/>
    <path fill="#14AECC" d="M324.3 108.4l-117 51.6 52.6 29.8z"/>
    <path fill="#24A4BD" d="M324.3 108.4l31.1 13.9-95.5 67.5z"/>
    <path fill="#29B1CC" d="M259.9 218.8l95.5-96.5-95.5 67.5z"/>
    <path fill="#00B9DE" d="M259.9 218.8l95.5-96.5-11.4 48.2z"/>
    <path fill="#38C5ED" d="M259.9 218.8l11.7 16.3 72.4-64.6z"/>
    <path fill="#019BBA" d="M275.2 247.7l-3.6-12.6 72.4-64.6z"/>
    <path fill="#00A2C2" d="M275.2 247.7l103.6 29.6L344 170.5z"/>
    <path fill="#43BDE3" d="M355.4 122.3l23.4 155L344 170.5z"/>
    <path fill="#47C7EF" d="M355.4 122.3l23.4 155-15-146.2z"/>
    <path fill="#00B9DE" d="M378.8 149.1v128.2l-15-146.2z"/>
    <path fill="#0AC" d="M378.8 149.1v128.2L411 282z"/>
    <path fill="#00B4D8" d="M403 318.4l-24.2-41.1L411 282z"/>
    <path fill="#00A2C2" d="M403 318.4l-24.2-41.1-31.6 51.9z"/>
    <path fill="#15C2E9" d="M334.5 264.6l44.3 12.7-31.6 51.9z"/>
    <path fill="#00B4D8" d="M334.5 264.6L315.7 296l31.5 33.2zM403 318.4l-24.2 44-31.6-33.2z"/>
    <path fill="#46C7EF" d="M378.8 149.1l27.8 55.1L411 282z"/>
    <path fill="#00ABCD" d="M324.3 108.4l31.1 13.9 5.4-13.9zM324.3 108.4l39.5-14.7-3 14.7z"/>
    <path fill="#00BEE3" d="M324.3 108.4l39.5-14.7L322.4 61z"/>
    <path fill="#00A4C5" d="M363.8 77.4v16.3L322.4 61z"/>
    <path fill="#00B4D8" d="M363.8 77.4l-3-13.4-38.4-3z"/>
    <path fill="#0F9AB5" d="M320.6 14l40.2 50-38.4-3z"/>
    <path fill="#03ACCD" d="M320.6 14l40.2 50L344 31.2z"/>
</svg>
