<svg xmlns="http://www.w3.org/2000/svg" width="950.7" height="371.7" viewBox="0 0 950.7 371.7">
    <path fill="#09131F" d="M91.7 98.8L11.6 229.9H175zM898.6 136.2l-50.1 131.1h102.2zM620.8 112.8l-85.2 117.1h173.9z"/>
    <path fill="#09131F" d="M682.2 134.8l-48.9 117.1h99.8z"/>
    <path fill="#192C3B" d="M433.6 0L268 252.9h338z"/>
    <path fill="#0D1B28" d="M433.6 0L268 252.9h110.4z"/>
    <path fill="#D7D8D8" d="M433.6 0L414 89.7l-6.6-34.1L397 72.8l-4.1-11.1z"/>
    <path fill="#F4F4F3" d="M472.6 56.9v22.6l-16-11.3-11.1 29.5-12.1-33.3-19.5 25.7V90l19.7-90z"/>
    <path fill="#192C3B" d="M778.4 59.6L651.1 252.9H911z"/>
    <path fill="#0D1B28" d="M778.4 59.6L651.1 252.9H736z"/>
    <path fill="#D7D8D8" d="M778.4 59.6l-15 68.6-5.1-26.1-8 13.1-3.1-8.4z"/>
    <path fill="#F4F4F3" d="M808.5 102.9v17.2l-12.3-8.6-8.5 22.6-9.3-25.5-15 19.6 15-68.6z"/>
    <path fill="#192C3B" d="M279 15.5L126.5 252.9h311.4z"/>
    <path fill="#0D1B28" d="M279 15.5L126.5 252.9h101.7z"/>
    <path fill="#D7D8D8" d="M279 15.5l-18 84.2-6.1-32.1-9.6 16.2-3.7-10.4z"/>
    <path fill="#F4F4F3" d="M315.1 68.6v21.2l-14.7-10.6-10.3 27.7L279 75.6l-18 24.1 18-84.2z"/>
    <path fill="#0A1825" d="M413.9 223.5l8-41.5 8.1 41.5z"/>
    <path fill="#0A1825" d="M421.9 223.5l6.6-34.1 6.7 34.1z"/>
    <g fill="#09131F">
        <path d="M589.5 225.8l8.1-41.4 8 41.4z"/>
        <path d="M597.6 225.8l6.6-34.1 6.6 34.1z"/>
    </g>
    <g fill="#0A1825">
        <path d="M790.9 235.8l8-41.4 8.1 41.4z"/>
        <path d="M798.9 235.8l6.6-34.1 6.7 34.1z"/>
    </g>
    <path fill="#0A1825" d="M491.9 206.4l6.6-34.1 6.7 34.1zM337.6 229.9l6.6-34.1 6.6 34.1zM324.3 240.5l6.7-34.1 6.6 34.1zM350.8 250l6.6-34.1 6.7 34.1zM510.6 223.5l6.6-34.1 6.6 34.1zM824.3 259.9l6.6-34.1 6.6 34.1z"/>
    <path fill="#0A1825" d="M835.3 249.9l6.6-34.1 6.6 34.1zM247.8 235.8l6.6-34.1 6.6 34.1z"/>
    <path fill="#0A1825" d="M0 226.7s63.6-34 136.3-21 133.7 28 155.7 28 81-9 106-15.5 85-15.4 110-15.5c25 0 163 1 196 15.5s80.7 14.5 89.9 15.5 155.1 2 156.1-15.5v153.5H0v-145z"/>
</svg>
