<?xml version="1.0" encoding="utf-8"?>
<!-- Generator: Adobe Illustrator 19.0.0, SVG Export Plug-In . SVG Version: 6.00 Build 0)  -->
<!DOCTYPE svg PUBLIC "-//W3C//DTD SVG 1.1//EN" "http://www.w3.org/Graphics/SVG/1.1/DTD/svg11.dtd">
<svg version="1.1" id="Layer_1" xmlns="http://www.w3.org/2000/svg" xmlns:xlink="http://www.w3.org/1999/xlink" x="0px" y="0px"
	 width="256px" height="361px" viewBox="-21 20 256 361" enable-background="new -21 20 256 361" xml:space="preserve">
<g>
	<path fill="#264DE4" d="M106.8,380.1L2.7,351.2L-20.6,90.8h255.1l-23.2,260.4L106.8,380.1L106.8,380.1z"/>
	<path fill="#2965F1" d="M191.4,334.5l19.9-222.5H107V358L191.4,334.5L191.4,334.5z"/>
	<path fill="#EBEBEB" d="M32.7,208.6l2.9,31.9H107v-31.9H32.7L32.7,208.6z"/>
	<path fill="#EBEBEB" d="M26.9,144l2.9,31.9H107V144H26.9L26.9,144z"/>
	<path fill="#EBEBEB" d="M107,291.6l-0.1,0L71.3,282L69,256.5H37l4.5,50.1l65.4,18.2l0.1,0V291.6L107,291.6z"/>
	<path d="M39.5,20h38.7v16.2H55.7v16.2h22.5v16.2H39.5V20L39.5,20z"/>
	<path d="M85.9,20h38.7v14.1h-22.5v2.8h22.5v32.4H85.9V54.5h22.5v-2.8H85.9V20L85.9,20z"/>
	<path d="M132.3,20H171v14.1h-22.5v2.8H171v32.4h-38.7V54.5h22.5v-2.8h-22.5V20L132.3,20z"/>
	<path fill="#FFFFFF" d="M181.1,208.6l5.8-64.6h-80v31.9h45l-2.9,32.7h-42.1v31.9h39.3l-3.7,41.4l-35.6,9.6v33.2l65.5-18.1l0.5-5.4
		l7.5-84.1L181.1,208.6L181.1,208.6z"/>
</g>
</svg>
