<?xml version="1.0" encoding="utf-8"?>
<!-- Generator: Adobe Illustrator 19.0.0, SVG Export Plug-In . SVG Version: 6.00 Build 0)  -->
<!DOCTYPE svg PUBLIC "-//W3C//DTD SVG 1.1//EN" "http://www.w3.org/Graphics/SVG/1.1/DTD/svg11.dtd">
<svg version="1.1" id="Layer_1" xmlns="http://www.w3.org/2000/svg" xmlns:xlink="http://www.w3.org/1999/xlink" x="0px" y="0px"
	 width="256px" height="361px" viewBox="-21 20 256 361" enable-background="new -21 20 256 361" xml:space="preserve">
<g>
	<path fill="#E44D26" d="M234.6,90.8l-23.2,260.4l-104.5,29L2.7,351.2L-20.6,90.8H234.6L234.6,90.8z"/>
	<path fill="#F16529" d="M107,358l84.4-23.4l19.9-222.5H107V358L107,358z"/>
	<path fill="#EBEBEB" d="M61.8,175.9H107V144H26.9l0.8,8.6l7.8,88H107v-31.9H64.7L61.8,175.9L61.8,175.9z"/>
	<path fill="#EBEBEB" d="M69,256.5H37l4.5,50.1l65.4,18.2l0.1,0v-33.2l-0.1,0L71.3,282L69,256.5L69,256.5z"/>
	<path d="M3.2,20h16.2v16h14.8V20h16.2v48.6H34.3V52.3H19.4v16.3H3.2L3.2,20L3.2,20L3.2,20z"/>
	<path d="M71.8,36.1H57.5V20h44.8v16.1H88.1v32.5H71.8L71.8,36.1L71.8,36.1L71.8,36.1z"/>
	<path d="M109.5,20h16.9l10.4,17.1L147.2,20h16.9v48.6H148V44.5l-11.2,17.3h-0.3l-11.2-17.3v24.1h-15.9V20L109.5,20z"/>
	<path d="M172.2,20h16.2v32.5h22.8v16.1h-39.1V20L172.2,20z"/>
	<path fill="#FFFFFF" d="M106.9,240.6h39.3l-3.7,41.4l-35.6,9.6v33.2l65.5-18.1l0.5-5.4l7.5-84.1l0.8-8.6h-74.2V240.6L106.9,240.6z"
		/>
	<path fill="#FFFFFF" d="M106.9,175.9L106.9,175.9l77.1,0.1l0.6-7.2l1.5-16.2l0.8-8.6h-80V175.9L106.9,175.9z"/>
</g>
</svg>
