<?xml version="1.0" encoding="utf-8"?>
<!-- Generator: Adobe Illustrator 19.0.0, SVG Export Plug-In . SVG Version: 6.00 Build 0)  -->
<!DOCTYPE svg PUBLIC "-//W3C//DTD SVG 1.1//EN" "http://www.w3.org/Graphics/SVG/1.1/DTD/svg11.dtd">
<svg version="1.1" id="Layer_1" xmlns="http://www.w3.org/2000/svg" xmlns:xlink="http://www.w3.org/1999/xlink" x="0px" y="0px"
	 width="238.1px" height="193.8px" viewBox="0 0 238.1 193.8" enable-background="new 0 0 238.1 193.8" xml:space="preserve">
<g id="XMLID_14_">
	<path id="XMLID_43_" fill="#25D4FF" d="M0,2.3c8-0.7,16.1-1.3,24.3-1.7C32.4,0.2,40.7,0,49,0c8.7,0,17.5,0.9,26.5,2.6
		c9,1.7,17,5,24.3,9.8c7.2,4.8,13.1,11.4,17.6,20c4.5,8.5,6.8,19.6,6.8,33.1c0,13.6-2.3,24.6-6.8,33c-4.5,8.4-10.3,15.1-17.5,20
		c-7.1,4.9-15.1,8.2-23.9,9.9c-8.8,1.7-17.4,2.6-26,2.6c-2.3,0-4.4,0-6.4-0.1c-2-0.1-3.9-0.2-5.6-0.4v60.2c-3.3,0.5-6.5,0.9-9.6,1
		c-3.1,0.2-6.2,0.3-9.1,0.3c-2.8,0-5.8-0.1-9.1-0.3c-3.3-0.2-6.7-0.5-10.2-1V2.3z M38.1,98.8c2.1,0.4,4,0.5,5.9,0.5c1.8,0,4,0,6.7,0
		c4.3,0,8.6-0.6,12.8-1.7c4.2-1.1,7.9-3,11.1-5.6c3.2-2.6,5.8-6,7.7-10.3C84.1,77.5,85,72.2,85,66c0-6.4-1-11.9-2.9-16.3
		c-1.9-4.4-4.5-8-7.7-10.7c-3.2-2.7-6.9-4.6-11.1-5.7c-4.2-1.1-8.4-1.7-12.8-1.7c-1.9,0-3.7,0-5.3,0.1c-1.7,0.1-4,0.3-7.2,0.7V98.8z
		"/>
	<path id="XMLID_46_" fill="#25D4FF" d="M171.6,132c-9.7-2.8-17.3-6.9-22.8-12.4c-5.5-5.5-8.2-13.7-8.2-24.6
		c0-13.2,4.7-23.6,14.2-31c9.5-7.5,22.4-11.2,38.7-11.2c6.8,0,13.5,0.6,20.1,1.8c6.6,1.2,13.3,3,20.1,5.5c-0.4,4.5-1.2,9.2-2.6,14.1
		c-1.4,4.9-3,9.1-5,12.8c-4.2-1.7-8.8-3.3-13.8-4.6c-5-1.3-10.3-2-15.9-2c-5.9,0-10.5,0.9-13.8,2.7c-3.3,1.8-5,4.7-5,8.7
		c0,3.8,1.2,6.5,3.5,8.1c2.3,1.6,5.7,3,10,4.4l14.9,4.4c4.9,1.4,9.3,3.1,13.2,5.1c3.9,2,7.3,4.5,10,7.4c2.8,3,5,6.6,6.5,11
		c1.6,4.3,2.3,9.6,2.3,15.9c0,6.4-1.3,12.4-4,18c-2.7,5.6-6.6,10.4-11.7,14.5c-5.1,4.1-11.3,7.3-18.6,9.6
		c-7.3,2.3-15.6,3.5-24.8,3.5c-4.2,0-8-0.1-11.5-0.4c-3.5-0.3-6.8-0.7-10-1.3c-3.2-0.6-6.4-1.3-9.5-2.2c-3.1-0.9-6.5-2-10.2-3.4
		c0.3-4.7,1.2-9.4,2.5-14.2c1.3-4.8,3-9.4,5.1-14c5.7,2.3,11.2,4,16.3,5.1c5.1,1.1,10.5,1.7,16,1.7c2.4,0,5.1-0.2,8-0.7
		c2.9-0.4,5.5-1.2,8-2.3c2.4-1.1,4.5-2.6,6.1-4.4c1.7-1.8,2.5-4.2,2.5-7.2c0-4.2-1.3-7.2-3.8-9c-2.5-1.8-6-3.4-10.6-4.8L171.6,132z"
		/>
</g>
</svg>
