<?xml version="1.0" encoding="utf-8"?>
<!-- Generator: Adobe Illustrator 19.0.0, SVG Export Plug-In . SVG Version: 6.00 Build 0)  -->
<!DOCTYPE svg PUBLIC "-//W3C//DTD SVG 1.1//EN" "http://www.w3.org/Graphics/SVG/1.1/DTD/svg11.dtd">
<svg version="1.1" id="Layer_1" xmlns="http://www.w3.org/2000/svg" xmlns:xlink="http://www.w3.org/1999/xlink" x="0px" y="0px"
	 width="218.6px" height="195.6px" viewBox="0 0 218.6 195.6" enable-background="new 0 0 218.6 195.6" xml:space="preserve">
<g id="XMLID_14_">
	<path id="XMLID_17_" fill="#FF7919" d="M59.2,6.5c3.7-0.5,7.1-0.9,10.4-1.2c3.3-0.3,7-0.4,11-0.4c3.5,0,6.9,0.1,10.2,0.4
		c3.3,0.3,7,0.7,11,1.2L160.4,194c-7.1,1-14.1,1.6-20.9,1.6c-6.6,0-13-0.5-19.3-1.6l-10.4-37.6H47.7L37,194c-6.3,1-12.3,1.6-18,1.6
		c-6.4,0-12.8-0.5-19-1.6L59.2,6.5z M100.9,124.9L79.3,46.2l-22.7,78.8H100.9z"/>
	<path id="XMLID_20_" fill="#FF7919" d="M182.3,87.4h-17.5c-0.5-2.3-0.9-4.6-1.2-7.2c-0.3-2.5-0.4-4.9-0.4-7.2
		c0-4.7,0.5-9.3,1.6-13.8h53.7V194c-6.3,1-12.3,1.6-18.3,1.6c-5.7,0-11.7-0.5-18-1.6V87.4z M176.8,36.5c-1-5.9-1.6-11.7-1.6-17.5
		c0-5.6,0.5-11.4,1.6-17.5c3-0.5,6.1-0.9,9.5-1.2c3.4-0.3,6.5-0.4,9.3-0.4c3,0,6.2,0.1,9.7,0.4c3.5,0.3,6.7,0.7,9.6,1.2
		c0.5,3,0.9,5.9,1,8.7c0.2,2.9,0.3,5.8,0.3,8.7c0,2.8-0.1,5.7-0.3,8.6c-0.2,3-0.5,5.9-1,8.9c-3,0.5-6.1,0.9-9.5,1
		c-3.4,0.2-6.6,0.3-9.5,0.3c-2.8,0-5.9-0.1-9.4-0.3C183,37.4,179.8,37,176.8,36.5z"/>
</g>
</svg>
