<?xml version="1.0" encoding="utf-8"?>
<!-- Generator: Adobe Illustrator 19.0.0, SVG Export Plug-In . SVG Version: 6.00 Build 0)  -->
<!DOCTYPE svg PUBLIC "-//W3C//DTD SVG 1.1//EN" "http://www.w3.org/Graphics/SVG/1.1/DTD/svg11.dtd">
<svg version="1.1" id="Layer_1" xmlns="http://www.w3.org/2000/svg" xmlns:xlink="http://www.w3.org/1999/xlink" x="0px" y="0px"
	 width="288.5px" height="192.2px" viewBox="0 0 288.5 192.2" enable-background="new 0 0 288.5 192.2" xml:space="preserve">
<g id="XMLID_14_">
	<path id="XMLID_42_" fill="#25D4FF" d="M59.2,1.6c3.7-0.5,7.1-0.9,10.4-1.2c3.3-0.3,7-0.4,11-0.4c3.5,0,6.9,0.1,10.2,0.4
		c3.3,0.3,7,0.7,11,1.2l58.7,187.5c-7.1,1-14.1,1.6-20.9,1.6c-6.6,0-13-0.5-19.3-1.6l-10.4-37.6H47.7L37,189.1
		c-6.3,1-12.3,1.6-18,1.6c-6.4,0-12.8-0.5-19-1.6L59.2,1.6z M100.9,120L79.3,41.2L56.6,120H100.9z"/>
	<path id="XMLID_45_" fill="#25D4FF" d="M200.6,133c0.7,10.4,4.3,18,11,22.7c6.6,4.7,15.3,7,26.1,7c5.9,0,12-0.6,18.1-1.7
		c6.2-1.1,12-2.7,17.6-4.8c1.9,3.5,3.6,7.7,5,12.5c1.4,4.9,2.2,10.1,2.3,15.6c-13.6,5.2-28.9,7.8-45.9,7.8
		c-12.5,0-23.3-1.7-32.2-5.2c-9-3.5-16.3-8.3-21.9-14.5c-5.7-6.2-9.8-13.5-12.5-22c-2.7-8.5-4-17.8-4-27.9c0-9.9,1.4-19.2,4.2-27.9
		c2.8-8.7,6.9-16.3,12.4-22.7c5.5-6.4,12.3-11.5,20.3-15.3c8.1-3.7,17.5-5.6,28.3-5.6c9.4,0,17.7,1.7,25,5
		c7.3,3.3,13.5,7.8,18.6,13.6c5.1,5.7,9,12.6,11.6,20.5c2.6,7.9,3.9,16.4,3.9,25.4c0,3.3-0.1,6.6-0.4,9.8c-0.3,3.2-0.6,5.8-0.9,7.7
		H200.6z M253.5,107.2c-0.4-8.3-2.7-15.1-6.9-20.2c-4.3-5.1-10.2-7.7-17.9-7.7c-8.7,0-15.3,2.4-19.8,7.3c-4.5,4.9-7.2,11.7-8.1,20.6
		H253.5z"/>
</g>
</svg>
