<?xml version="1.0" encoding="utf-8"?>
<!-- Generator: Adobe Illustrator 19.0.0, SVG Export Plug-In . SVG Version: 6.00 Build 0)  -->
<!DOCTYPE svg PUBLIC "-//W3C//DTD SVG 1.1//EN" "http://www.w3.org/Graphics/SVG/1.1/DTD/svg11.dtd">
<svg version="1.1" id="Layer_1" xmlns="http://www.w3.org/2000/svg" xmlns:xlink="http://www.w3.org/1999/xlink" x="0px" y="0px"
	 width="411px" height="448px" viewBox="0 0 411 448" enable-background="new 0 0 411 448" xml:space="preserve">
<g>
	<polygon fill="#00ABCD" points="0,0 0,47.7 56.3,0 	"/>
	<polygon fill="#15C0E1" points="0,81.9 0,47.7 56.3,0 	"/>
	<polygon fill="#14AECC" points="0,81.9 56.3,52.9 56.3,0 	"/>
	<polygon fill="#00A8CA" points="0,81.9 56.3,52.9 65.1,90.2 	"/>
	<polygon fill="#0FA3BF" points="0,81.9 0,117.6 65.1,90.2 	"/>
	<polygon fill="#00AED1" points="139.5,202.8 0,117.6 65.1,90.2 	"/>
	<polygon fill="#00A4C5" points="139.5,202.8 0,117.6 0,256.4 	"/>
	<polygon fill="#00B7DB" points="139.5,202.8 82.5,253.8 0,256.4 	"/>
	<polygon fill="#009EBD" points="39.9,277.3 82.5,253.8 0,256.4 	"/>
	<polygon fill="#00AED1" points="39.9,277.3 82.5,253.8 86.1,310.3 	"/>
	<polygon fill="#00BBE1" points="139.5,202.8 82.5,253.8 86.1,310.3 	"/>
	<polygon fill="#00A4C5" points="139.5,202.8 139.5,310.3 86.1,310.3 	"/>
	<polygon fill="#15C2E9" points="32.6,373.8 139.5,310.3 86.1,310.3 	"/>
	<polygon fill="#00AED1" points="32.6,373.8 63,293.8 86.1,310.3 	"/>
	<polygon fill="#00BEE3" points="32.6,373.8 63,293.8 39.9,277.3 19,266.3 	"/>
	<polygon fill="#00A0BF" points="32.6,373.8 0,256.4 19,266.3 	"/>
	<polygon fill="#0095B2" points="32.6,373.8 0,256.4 0,425.6 	"/>
	<polygon fill="#46C7EF" points="32.6,373.8 0,448 0,425.6 	"/>
	<polygon fill="#00ABCD" points="32.6,373.8 0,448 73.3,448 	"/>
	<polygon fill="#009EBD" points="32.6,373.8 120.1,321.8 73.3,448 	"/>
	<polygon fill="#00B7DB" points="115.5,387.4 120.1,321.8 73.3,448 	"/>
	<polygon fill="#00A6C7" points="115.5,387.4 130.4,448 73.3,448 	"/>
	<polygon fill="#00B9DE" points="115.5,387.4 130.4,448 293.8,350.9 	"/>
	<polygon fill="#00A2C2" points="115.5,387.4 192.7,350.9 293.8,350.9 	"/>
	<polygon fill="#00ABCD" points="115.5,387.4 192.7,350.9 117.8,355.6 	"/>
	<polygon fill="#0099B8" points="120.1,321.8 192.7,350.9 117.8,355.6 	"/>
	<polygon fill="#00A4C5" points="120.1,321.8 192.7,350.9 139.5,308.9 	"/>
	<polygon fill="#00ABCD" points="221.7,308.9 192.7,350.9 139.5,308.9 	"/>
	<polygon fill="#00ABCD" points="221.7,308.9 192.7,350.9 231.5,329.9 	"/>
	<polygon fill="#00ABCD" points="221.7,308.9 236.2,307 231.5,329.9 	"/>
	<polygon fill="#0097B5" points="251,300.6 236.2,307 231.5,329.9 	"/>
	<polygon fill="#00ABCD" points="251,300.6 245.2,350.9 231.5,329.9 	"/>
	<polygon fill="#00B0D3" points="192.7,350.9 245.2,350.9 231.5,329.9 	"/>
	<polygon fill="#00C0E6" points="251,300.6 245.2,350.9 280.9,301.8 	"/>
	<polygon fill="#00ABCD" points="251,300.6 264.8,286.7 280.9,301.8 	"/>
	<polygon fill="#00ABCD" points="315.7,296 264.8,286.7 280.9,301.8 	"/>
	<polygon fill="#00ABCD" points="315.7,296 293.8,350.9 280.9,301.8 	"/>
	<polygon fill="#00B2D6" points="245.2,350.9 293.8,350.9 280.9,301.8 	"/>
	<polygon fill="#00A8CA" points="315.7,296 293.8,350.9 378.8,362.4 	"/>
	<polygon fill="#00A0BF" points="318.6,403.3 293.8,350.9 378.8,362.4 	"/>
	<polygon fill="#00ABCD" points="318.6,403.3 293.8,350.9 257.4,373.8 	"/>
	<polygon fill="#00C0E6" points="318.6,403.3 202.7,425.6 257.4,373.8 	"/>
	<polygon fill="#46C7EF" points="318.6,403.3 202.7,425.6 248.1,446.4 	"/>
	<polygon fill="#00B7DB" points="318.6,403.3 303,430.6 248.1,446.4 	"/>
	<polygon fill="#00ABCD" points="318.6,403.3 303,430.6 378.8,362.4 	"/>
	<polygon fill="#0099B8" points="355.4,394.9 303,430.6 378.8,362.4 	"/>
	<polygon fill="#00ABCD" points="130.4,448 202.7,425.6 248.1,446.4 	"/>
	<polygon fill="#00B2D6" points="130.4,448 202.7,425.6 293.8,350.9 	"/>
	<polygon fill="#07C1E8" points="315.7,296 264.8,286.7 271.6,272.9 	"/>
	<polygon fill="#00AED1" points="315.7,296 334.5,264.6 271.6,272.9 	"/>
	<polygon fill="#00BBE1" points="275.2,247.7 334.5,264.6 271.6,272.9 	"/>
	<polygon fill="#00ABCC" points="86.1,0 56.3,52.9 56.3,0 	"/>
	<polygon fill="#009EBD" points="86.1,0 56.3,52.9 174.8,98.3 	"/>
	<polygon fill="#00ABCC" points="86.1,0 108.8,0 174.8,98.3 	"/>
	<polygon fill="#00A2C2" points="259.9,34.4 108.8,0 174.8,98.3 	"/>
	<polygon fill="#0097B5" points="259.9,34.4 108.8,0 189.7,0 	"/>
	<polygon fill="#00B0D3" points="259.9,34.4 259.9,0 189.7,0 	"/>
	<polygon fill="#00B7DB" points="259.9,34.4 259.9,0 271.6,0 	"/>
	<polygon fill="#019BBA" points="259.9,34.4 283.6,1.8 271.6,0 	"/>
	<polygon fill="#0095B2" points="259.9,34.4 283.6,1.8 302.4,5.7 	"/>
	<polygon fill="#00B0D3" points="259.9,34.4 255.3,71.3 302.4,5.7 	"/>
	<polygon fill="#00ACCE" points="259.9,34.4 255.3,71.3 174.8,98.3 	"/>
	<polygon fill="#00BBE1" points="207.3,160 255.3,71.3 174.8,98.3 	"/>
	<polygon fill="#18AFCC" points="207.3,160 144.4,157.1 174.8,98.3 	"/>
	<polygon fill="#00ABCD" points="207.3,160 144.4,157.1 174.8,199.8 	"/>
	<polygon fill="#00B9DE" points="207.3,160 228.9,202.8 174.8,199.8 	"/>
	<polygon fill="#00ABCD" points="207.3,160 228.9,202.8 259.9,189.8 	"/>
	<polygon fill="#38C4E3" points="259.9,218.8 228.9,202.8 259.9,189.8 	"/>
	<polygon fill="#4DC6E1" points="117.8,169.9 144.4,157.1 174.8,199.8 	"/>
	<polygon fill="#41C6EF" points="117.8,169.9 139.5,202.8 174.8,199.8 	"/>
	<polygon fill="#08B7D8" points="117.8,169.9 144.4,157.1 65.1,90.2 	"/>
	<polygon fill="#00B8DB" points="56.3,52.9 144.4,157.1 174.8,98.3 	"/>
	<polygon fill="#00ABCD" points="56.3,52.9 144.4,157.1 65.1,90.2 	"/>
	<polygon fill="#00B0D3" points="207.3,160 255.3,71.3 248,122.3 	"/>
	<polygon fill="#00A0BF" points="302.4,5.7 255.3,71.3 248,122.3 	"/>
	<polygon fill="#009EBD" points="302.4,5.7 320.6,14 248,122.3 	"/>
	<polygon fill="#00A8CA" points="324.3,108.4 320.6,14 248,122.3 	"/>
	<polygon fill="#15C2E9" points="324.3,108.4 207.3,160 248,122.3 	"/>
	<polygon fill="#14AECC" points="324.3,108.4 207.3,160 259.9,189.8 	"/>
	<polygon fill="#24A4BD" points="324.3,108.4 355.4,122.3 259.9,189.8 	"/>
	<polygon fill="#29B1CC" points="259.9,218.8 355.4,122.3 259.9,189.8 	"/>
	<polygon fill="#00B9DE" points="259.9,218.8 355.4,122.3 344,170.5 	"/>
	<polygon fill="#38C5ED" points="259.9,218.8 271.6,235.1 344,170.5 	"/>
	<polygon fill="#019BBA" points="275.2,247.7 271.6,235.1 344,170.5 	"/>
	<polygon fill="#00A2C2" points="275.2,247.7 378.8,277.3 344,170.5 	"/>
	<polygon fill="#43BDE3" points="355.4,122.3 378.8,277.3 344,170.5 	"/>
	<polygon fill="#47C7EF" points="355.4,122.3 378.8,277.3 363.8,131.1 	"/>
	<polygon fill="#00B9DE" points="378.8,149.1 378.8,277.3 363.8,131.1 	"/>
	<polygon fill="#00AACC" points="378.8,149.1 378.8,277.3 411,282 	"/>
	<polygon fill="#00B4D8" points="403,318.4 378.8,277.3 411,282 	"/>
	<polygon fill="#00A2C2" points="403,318.4 378.8,277.3 347.2,329.2 	"/>
	<polygon fill="#15C2E9" points="334.5,264.6 378.8,277.3 347.2,329.2 	"/>
	<polygon fill="#00B4D8" points="334.5,264.6 315.7,296 347.2,329.2 	"/>
	<polygon fill="#00B4D8" points="403,318.4 378.8,362.4 347.2,329.2 	"/>
	<polygon fill="#46C7EF" points="378.8,149.1 406.6,204.2 411,282 	"/>
	<polygon fill="#00ABCD" points="324.3,108.4 355.4,122.3 360.8,108.4 	"/>
	<polygon fill="#00ABCD" points="324.3,108.4 363.8,93.7 360.8,108.4 	"/>
	<polygon fill="#00BEE3" points="324.3,108.4 363.8,93.7 322.4,61 	"/>
	<polygon fill="#00A4C5" points="363.8,77.4 363.8,93.7 322.4,61 	"/>
	<polygon fill="#00B4D8" points="363.8,77.4 360.8,64 322.4,61 	"/>
	<polygon fill="#0F9AB5" points="320.6,14 360.8,64 322.4,61 	"/>
	<polygon fill="#03ACCD" points="320.6,14 360.8,64 344,31.2 	"/>
</g>
</svg>
