<?xml version="1.0" encoding="utf-8"?>
<!-- Generator: Adobe Illustrator 19.0.0, SVG Export Plug-In . SVG Version: 6.00 Build 0)  -->
<!DOCTYPE svg PUBLIC "-//W3C//DTD SVG 1.1//EN" "http://www.w3.org/Graphics/SVG/1.1/DTD/svg11.dtd">
<svg version="1.1" xmlns="http://www.w3.org/2000/svg" xmlns:xlink="http://www.w3.org/1999/xlink" x="0px" y="0px" width="950.7px"
	 height="371.7px" viewBox="0 0 950.7 371.7" enable-background="new 0 0 950.7 371.7" xml:space="preserve">
<g id="Background">
</g>
<g id="Objets">
	<polygon fill="#09131F" points="91.7,98.8 11.6,229.9 175,229.9 	"/>
	<polygon fill="#09131F" points="898.6,136.2 848.5,267.3 950.7,267.3 	"/>
	<polygon fill="#09131F" points="620.8,112.8 535.6,229.9 709.5,229.9 	"/>
	<polygon fill="#09131F" points="682.2,134.8 633.3,251.9 733.1,251.9 	"/>
	<g>
		<polygon fill="#192C3B" points="433.6,0 268,252.9 606,252.9 		"/>
		<polygon fill="#0D1B28" points="433.6,0 268,252.9 378.4,252.9 		"/>
		<polygon fill="#D7D8D8" points="433.6,0 414,89.7 407.4,55.6 397,72.8 392.9,61.7 		"/>
		<polygon fill="#F4F4F3" points="472.6,56.9 472.6,79.5 456.6,68.2 445.5,97.7 433.4,64.4 413.9,90.1 413.9,90 433.6,0 		"/>
	</g>
	<g>
		<polygon fill="#192C3B" points="778.4,59.6 651.1,252.9 911,252.9 		"/>
		<polygon fill="#0D1B28" points="778.4,59.6 651.1,252.9 736,252.9 		"/>
		<polygon fill="#D7D8D8" points="778.4,59.6 763.4,128.2 758.3,102.1 750.3,115.2 747.2,106.8 		"/>
		<polygon fill="#F4F4F3" points="808.5,102.9 808.5,120.1 796.2,111.5 787.7,134.1 778.4,108.6 763.4,128.2 763.4,128.2 
			778.4,59.6 		"/>
	</g>
	<g>
		<polygon fill="#192C3B" points="279,15.5 126.5,252.9 437.9,252.9 		"/>
		<polygon fill="#0D1B28" points="279,15.5 126.5,252.9 228.2,252.9 		"/>
		<polygon fill="#D7D8D8" points="279,15.5 261,99.7 254.9,67.6 245.3,83.8 241.6,73.4 		"/>
		<polygon fill="#F4F4F3" points="315.1,68.6 315.1,89.8 300.4,79.2 290.1,106.9 279,75.6 261,99.7 261,99.7 279,15.5 		"/>
	</g>
	<polygon fill="#0A1825" points="413.9,223.5 421.9,182 430,223.5 	"/>
	<polygon fill="#0A1825" points="421.9,223.5 428.5,189.4 435.2,223.5 	"/>
	<g>
		<polygon fill="#09131F" points="589.5,225.8 597.6,184.4 605.6,225.8 		"/>
		<polygon fill="#09131F" points="597.6,225.8 604.2,191.7 610.8,225.8 		"/>
	</g>
	<g>
		<polygon fill="#0A1825" points="790.9,235.8 798.9,194.4 807,235.8 		"/>
		<polygon fill="#0A1825" points="798.9,235.8 805.5,201.7 812.2,235.8 		"/>
	</g>
	<polygon fill="#0A1825" points="491.9,206.4 498.5,172.3 505.2,206.4 	"/>
	<polygon fill="#0A1825" points="337.6,229.9 344.2,195.8 350.8,229.9 	"/>
	<polygon fill="#0A1825" points="324.3,240.5 331,206.4 337.6,240.5 	"/>
	<polygon fill="#0A1825" points="350.8,250 357.4,215.9 364.1,250 	"/>
	<polygon fill="#0A1825" points="510.6,223.5 517.2,189.4 523.8,223.5 	"/>
	<polygon fill="#0A1825" points="824.3,259.9 830.9,225.8 837.5,259.9 	"/>
	<polygon fill="#0A1825" points="835.3,249.9 841.9,215.8 848.5,249.9 	"/>
	<polygon fill="#0A1825" points="247.8,235.8 254.4,201.7 261,235.8 	"/>
	<path fill="#0A1825" d="M0,226.7c0,0,63.6-34,136.3-21s133.7,28,155.7,28s81-9,106-15.5c25-6.5,85-15.4,110-15.5
		c25,0,163,1,196,15.5c33,14.5,80.7,14.5,89.9,15.5s155.1,2,156.1-15.5v153.5H0V226.7z"/>
</g>
</svg>
